HIERARCHY
ROOT Hips
{
  OFFSET 0 89.5177 0.535
  CHANNELS 6 Xposition Yposition Zposition Zrotation Xrotation Yrotation
  JOINT Spine
  {
    OFFSET 12.0259 -0.162855 1.69034e-005
    CHANNELS 3 Zrotation Xrotation Yrotation
    JOINT Spine1
    {
      OFFSET 15.3169 -0.0121922 0
      CHANNELS 3 Zrotation Xrotation Yrotation
      JOINT Spine2
      {
        OFFSET 15.3176 -0.0121908 0
        CHANNELS 3 Zrotation Xrotation Yrotation
        JOINT Neck
        {
          OFFSET 19.9142 1.56338 0
          CHANNELS 3 Zrotation Xrotation Yrotation
          JOINT Head
          {
            OFFSET 6.92651 0 0
            CHANNELS 3 Zrotation Xrotation Yrotation
            End Site
            {
              OFFSET 20.7666 0 0
            }
          }
          JOINT LeftShoulder
          {
            OFFSET -6.20654 0.708824 7.28219
            CHANNELS 3 Zrotation Xrotation Yrotation
            JOINT LeftArm
            {
              OFFSET 14.108 0 -1.52588e-005
              CHANNELS 3 Zrotation Xrotation Yrotation
              JOINT LeftForeArm
              {
                OFFSET 28.5802 0 0
                CHANNELS 3 Zrotation Xrotation Yrotation
                JOINT LeftHand
                {
                  OFFSET 27.092 0 0
                  CHANNELS 3 Zrotation Xrotation Yrotation
                  End Site
                  {
                    OFFSET 9.55928 -0.186424 0.145352
                  }
                }
              }
            }
          }
          JOINT RightShoulder
          {
            OFFSET -6.20654 0.708866 -7.28218
            CHANNELS 3 Zrotation Xrotation Yrotation
            JOINT RightArm
            {
              OFFSET 14.108 0 1.52588e-005
              CHANNELS 3 Zrotation Xrotation Yrotation
              JOINT RightForeArm
              {
                OFFSET 28.5802 0 0
                CHANNELS 3 Zrotation Xrotation Yrotation
                JOINT RightHand
                {
                  OFFSET 27.092 0 0
                  CHANNELS 3 Zrotation Xrotation Yrotation
                  End Site
                  {
                    OFFSET 9.55929 -0.186417 -0.145354
                  }
                }
              }
            }
          }
        }
      }
    }
  }
  JOINT LeftUpLeg
  {
    OFFSET 0.005 -0.535 8.837
    CHANNELS 3 Zrotation Xrotation Yrotation
    JOINT LeftLeg
    {
      OFFSET 39.9035 0 0
      CHANNELS 3 Zrotation Xrotation Yrotation
      JOINT LeftFoot
      {
        OFFSET 39.6689 0 0
        CHANNELS 3 Zrotation Xrotation Yrotation
        JOINT LeftToe
        {
          OFFSET 10.1624 13.6296 0
          CHANNELS 3 Zrotation Xrotation Yrotation
          End Site
          {
            OFFSET 8.38147 0 0
          }
        }
      }
    }
  }
  JOINT RightUpLeg
  {
    OFFSET 0.005 -0.535 -8.837
    CHANNELS 3 Zrotation Xrotation Yrotation
    JOINT RightLeg
    {
      OFFSET 39.9035 0 0
      CHANNELS 3 Zrotation Xrotation Yrotation
      JOINT RightFoot
      {
        OFFSET 39.6689 0 0
        CHANNELS 3 Zrotation Xrotation Yrotation
        JOINT RightToe
        {
          OFFSET 10.1624 13.6296 0
          CHANNELS 3 Zrotation Xrotation Yrotation
          End Site
          {
            OFFSET 8.38147 0 0
          }
        }
      }
    }
  }
}
MOTION
Frames:	11
Frame Time:	0.0333333
355.193 83.1209 -118.79 106.265 16.1954 -10.809 4.55257 0.352901 0.894727 9.09938 0.776149 1.75879 9.09938 0.776149 1.75878 -8.31424e-012 -9.0191e-006 -5.27751e-005 -47.8833 6.09629 -7.08629 178.807 3.18129 -69.4249 16.6777 -24.3632 59.1904 -24.5518 -6.36111e-015 6.36111e-015 -64.4925 -37.6665 -62.7903 179.015 -4.10167 76.4834 7.6557 37.477 -39.1159 -35.2436 6.36111e-015 -1.27222e-014 -54.8452 40.1772 57.3812 -59.1864 24.6842 -169.478 -66.7781 -3.18055e-015 6.36111e-015 2.47334 20.1154 -12.309 90 0 -3.18055e-015 -38.9245 -15.5974 159.694 -41.9966 -3.18056e-015 -3.18056e-015 7.8659 -11.1332 16.4619 90 1.98785e-016 -7.95139e-016 
350.764 82.5831 -114.793 105.256 15.3219 -8.33782 4.8596 0.342486 0.376149 9.71714 0.716086 0.722062 9.71714 0.716085 0.722052 -8.30828e-012 -9.0191e-006 -5.27751e-005 -46.9232 5.03614 -7.83836 178.822 3.09651 -69.1617 19.9828 -27.4413 60.3492 -23.7418 9.54166e-015 -0 -63.8989 -38.3021 -62.3512 179.06 -4.84498 79.0012 12.3538 44.9882 -41.2282 -34.3103 9.54166e-015 -1.59028e-014 -56.4895 42.1108 61.1354 -62.3451 21.7541 -166.336 -74.2736 -6.36111e-015 -3.18055e-015 -2.59288 20.5962 -16.0227 90 -3.18055e-015 9.54166e-015 -44.6465 -16.9364 160.601 -34.8559 0 -0 5.10287 -16.5901 14.3999 90 7.95139e-016 3.18055e-015 
346.45 81.2757 -111.267 104.418 15.4314 -6.33721 5.31573 0.310649 -0.119999 10.6323 0.609332 -0.268165 10.6323 0.609331 -0.268174 -8.31185e-012 -9.0191e-006 -5.27751e-005 -48.3544 3.22251 -7.77261 178.808 3.11004 -69.0149 21.3885 -30.0832 60.3703 -23.4585 -1.27222e-014 -0 -64.8581 -38.218 -63.8902 179.061 -5.73187 80.6781 16.3913 51.4582 -40.8252 -33.6615 3.18055e-015 -6.36111e-015 -57.5995 41.799 62.4234 -64.4947 17.3191 -165.331 -76.7571 -6.36111e-015 -9.54166e-015 -1.31603 13.1349 -3.81701 90 -3.18055e-015 6.36111e-015 -50.0655 -13.4031 160.749 -32.6237 -7.95139e-016 1.59028e-015 1.61196 -21.2348 21.7879 90 3.18055e-015 -0 
342.241 79.2593 -108.136 104.274 17.8815 -4.86141 5.67118 0.218137 -0.56137 11.3443 0.380211 -1.14146 11.3443 0.38021 -1.14147 -8.32338e-012 -9.0191e-006 -5.27751e-005 -49.9576 -0.781839 -7.19326 178.515 3.91609 -69.2124 22.2608 -32.7112 59.9651 -22.7301 -3.18055e-015 -3.18055e-015 -64.9674 -37.9989 -63.6923 179.178 -5.72867 81.8169 23.0356 57.6681 -42.3307 -30.2849 -6.36111e-015 -0 -58.1824 42.0684 63.7351 -64.2246 9.92312 -165.696 -66.1328 0 3.18055e-015 1.56038 12.3088 -4.66885 90 1.59028e-015 -3.18055e-015 -53.3066 -7.53066 160.668 -34.4091 1.59028e-015 -1.59028e-015 -0.671194 -18.9953 16.7684 90 -7.95139e-016 -3.18055e-015 
337.858 76.6096 -104.917 104.311 20.9281 -3.87977 6.01543 0.145622 -0.956169 12.0325 0.190711 -1.92224 12.0325 0.190711 -1.92225 -8.3043e-012 -9.0191e-006 -5.27751e-005 -51.8792 -6.11279 -6.55953 178.234 4.6386 -69.1331 23.7121 -35.93 59.7232 -22.4616 6.36111e-015 -6.36111e-015 -64.0379 -39.4466 -62.7908 179.193 -6.55566 82.965 35.225 61.6308 -48.2949 -26.5037 0 6.36111e-015 -60.9875 45.8057 69.1649 -59.5354 2.87023 -165.409 -40.0999 0 1.59028e-015 -4.48158 9.90107 -11.0493 90 0 -3.18055e-015 -55.4576 -1.14298 157.251 -42.8156 7.95139e-016 3.18056e-015 4.47916 -20.0169 19.0482 90 0 -3.18055e-015 
333.002 73.2706 -101.084 104.484 21.3917 -5.87583 6.13949 0.297027 -0.748866 12.2825 0.512724 -1.52513 12.2825 0.512723 -1.52514 -8.30907e-012 -9.0191e-006 -5.27751e-005 -53.7029 -10.2573 -6.09622 177.779 5.60383 -68.3428 26.9382 -37.466 59.4104 -22.0486 0 1.59028e-015 -64.2812 -40.1956 -63.8759 179.091 -7.15089 82.7383 40.2017 64.8619 -50.3967 -22.281 -1.59028e-015 -0 -63.0123 47.0454 73.0465 -50.9403 -5.83377 -160.45 -11.3291 0 6.36111e-015 -19.676 7.45427 -14.7449 90 1.59028e-015 6.36111e-015 -56.8014 1.36327 153.235 -49.3301 3.97569e-015 -0 13.8624 -28.2966 32.4068 90 -7.95139e-016 6.36111e-015 
328.377 69.5684 -96.3496 103.695 20.3467 -6.75188 5.9816 0.233551 -0.607898 11.9655 0.402958 -1.23674 11.9655 0.402957 -1.23675 -8.31066e-012 -9.0191e-006 -5.27751e-005 -52.1478 -15.2671 -3.62825 177.564 5.93588 -67.6432 30.9473 -38.1335 59.025 -17.7701 9.54166e-015 -3.18055e-015 -64.9442 -40.5223 -64.9402 179.148 -6.97424 83.0166 43.5085 64.6253 -54.3729 -22.643 -1.59028e-015 -0 -61.3858 49.1451 71.8437 -54.9609 -9.89474 -157.053 -20.4933 3.18055e-015 9.54166e-015 -20.6424 11.4426 -21.022 90 1.98785e-016 3.18055e-015 -56.4088 1.34731 147.456 -46.0644 1.73937e-015 3.18056e-015 13.5629 -31.7435 40.2079 90 -3.18055e-015 -9.54166e-015 
325.393 67.317 -93.238 103.766 19.2082 -6.7712 5.89886 0.509505 -0.683225 11.804 0.946544 -1.41518 11.804 0.946544 -1.41519 -8.30828e-012 -9.0191e-006 -5.27751e-005 -53.0817 -22.7439 -1.76304 176.839 7.76224 -67.7614 31.2099 -40.1667 57.5132 -10.8149 6.36111e-015 6.36111e-015 -65.898 -41.902 -67.887 179.073 -7.65339 83.0764 55.0142 65.6207 -62.933 -21.5853 3.18055e-015 3.18055e-015 -61.9922 49.9377 72.639 -64.6946 -5.60781 -155.082 -34.4821 9.54166e-015 -0 -15.2428 17.0545 -18.1159 90 0 3.18055e-015 -51.3102 5.50499 146.819 -32.6524 4.77083e-015 3.18056e-015 2.25255 -24.3767 31.0579 90 -3.97569e-016 -1.27222e-014 
322.109 65.566 -90.476 104.074 18.7184 -5.12302 6.04642 0.7089 -1.13536 12.1069 1.29461 -2.33922 12.1069 1.2946 -2.33923 -8.30589e-012 -9.0191e-006 -5.27751e-005 -54.3747 -28.408 -1.96667 175.635 10.7598 -67.7631 24.4908 -41.203 50.9719 -5.63271 3.18055e-015 6.36111e-015 -69.0451 -45.4581 -75.6174 178.971 -8.59019 83.1453 59.9007 66.0864 -65.5878 -15.7219 7.95139e-016 -3.18055e-015 -68.9386 49.3084 82.35 -64.1843 -8.3025 -154.491 -35.3043 -1.27222e-014 -3.18055e-015 -15.0807 13.2214 -21.2764 90 -9.93923e-017 -0 -50.239 8.87183 144.931 -28.4026 0 -3.18056e-015 2.3448 -26.4796 36.6986 90 1.49089e-016 -0 
318.827 64.7579 -88.2113 101.839 17.9699 -4.9383 6.05787 0.613543 -1.00286 12.1264 1.11822 -2.06492 12.1264 1.11822 -2.06493 -8.30748e-012 -9.0191e-006 -5.27751e-005 -49.6631 -28.7264 -1.83737 175.713 10.8546 -68.2938 25.7671 -43.209 50.9113 -4.92713 3.18055e-015 4.77083e-015 -68.0399 -43.9478 -73.9331 179.105 -8.61898 84.0459 65.6735 65.0748 -73.2241 -13.3745 -4.77083e-015 3.18055e-015 -69.1139 50.2264 82.7537 -62.2417 -12.3665 -153.149 -40.7761 3.18055e-015 6.36111e-015 -9.88931 13.6488 -22.7592 90 0 -6.36111e-015 -51.6537 9.27647 145.502 -35.7009 -2.38542e-015 -0 4.50948 -26.2387 35.3703 90 -9.93923e-017 -3.18055e-015 
316.102 65.1185 -86.8381 101.976 19.0112 -4.6323 5.94695 0.176564 -0.798521 11.8958 0.269918 -1.61095 11.8958 0.269918 -1.61096 -8.30669e-012 -9.0191e-006 -5.27751e-005 -50.2197 -27.8851 -3.57621 176.331 9.67494 -69.1154 29.8198 -47.181 56.2759 -9.09732 0 -4.77083e-015 -65.58 -41.2548 -68.2612 179.128 -7.69164 83.5097 67.4033 64.9708 -76.9612 -15.2487 -2.38542e-015 6.36111e-015 -67.8672 49.5069 81.1832 -62.8276 -9.64254 -152.749 -41.6113 0 3.18055e-015 -8.55789 16.0735 -22.9609 90 0 3.18055e-015 -54.2329 7.07579 144.251 -39.6969 -2.78299e-015 -0 3.27863 -25.7248 33.5056 90 1.49089e-016 6.36111e-015 
